<svg width="164" height="29" viewBox="0 0 164 29" fill="none" xmlns="http://www.w3.org/2000/svg">
<g clip-path="url(#clip0)">
<path fill-rule="evenodd" clip-rule="evenodd" d="M13.347 13.5676C13.862 13.5676 14.2795 13.9679 14.2795 14.462C14.2795 14.9559 13.862 15.3563 13.347 15.3563C12.8321 15.3563 12.4146 14.9559 12.4146 14.462C12.4146 13.9679 12.8321 13.5676 13.347 13.5676Z" fill="#151515" stroke="#151515"/>
<path fill-rule="evenodd" clip-rule="evenodd" d="M13.347 6.98761C14.0563 6.98761 14.6313 7.53918 14.6313 8.21954C14.6313 8.89985 14.0563 9.45138 13.347 9.45138C12.6377 9.45138 12.0627 8.89985 12.0627 8.21954C12.0627 7.53918 12.6377 6.98761 13.347 6.98761Z" fill="#151515" stroke="#151515"/>
<path fill-rule="evenodd" clip-rule="evenodd" d="M13.347 19.4732C14.0563 19.4732 14.6313 20.0248 14.6313 20.7051C14.6313 21.3854 14.0563 21.937 13.347 21.937C12.6377 21.937 12.0627 21.3854 12.0627 20.7051C12.0627 20.0248 12.6377 19.4732 13.347 19.4732Z" fill="#151515" stroke="#151515"/>
<path fill-rule="evenodd" clip-rule="evenodd" d="M7.72154 16.3453C8.43083 16.3453 9.00584 16.8969 9.00584 17.5772C9.00584 18.2576 8.43083 18.8091 7.72154 18.8091C7.01225 18.8091 6.43719 18.2576 6.43719 17.5772C6.43719 16.8969 7.01225 16.3453 7.72154 16.3453Z" fill="#151515" stroke="#151515"/>
<path fill-rule="evenodd" clip-rule="evenodd" d="M7.72154 10.1666C8.43083 10.1666 9.00584 10.7181 9.00584 11.3985C9.00584 12.0788 8.43083 12.6303 7.72154 12.6303C7.01225 12.6303 6.43719 12.0788 6.43719 11.3985C6.43719 10.7181 7.01225 10.1666 7.72154 10.1666Z" fill="#151515" stroke="#151515"/>
<path fill-rule="evenodd" clip-rule="evenodd" d="M18.9817 16.3453C19.691 16.3453 20.266 16.8969 20.266 17.5772C20.266 18.2576 19.691 18.8091 18.9817 18.8091C18.2724 18.8091 17.6974 18.2576 17.6974 17.5772C17.6974 16.8969 18.2724 16.3453 18.9817 16.3453Z" fill="#151515" stroke="#151515"/>
<path fill-rule="evenodd" clip-rule="evenodd" d="M18.9817 10.1666C19.691 10.1666 20.266 10.7181 20.266 11.3985C20.266 12.0788 19.691 12.6303 18.9817 12.6303C18.2724 12.6303 17.6974 12.0788 17.6974 11.3985C17.6974 10.7181 18.2724 10.1666 18.9817 10.1666Z" fill="#151515" stroke="#151515"/>
<path fill-rule="evenodd" clip-rule="evenodd" d="M13.3471 0.439392C14.2506 0.439392 14.9831 1.14198 14.9831 2.00877C14.9831 2.87551 14.2506 3.57815 13.3471 3.57815C12.4434 3.57815 11.7109 2.87551 11.7109 2.00877C11.7109 1.14198 12.4434 0.439392 13.3471 0.439392Z" fill="#151515" stroke="#151515"/>
<path fill-rule="evenodd" clip-rule="evenodd" d="M13.3471 25.3832C14.2506 25.3832 14.9831 26.0857 14.9831 26.9525C14.9831 27.8192 14.2506 28.5219 13.3471 28.5219C12.4434 28.5219 11.7109 27.8192 11.7109 26.9525C11.7109 26.0857 12.4434 25.3832 13.3471 25.3832Z" fill="#151515" stroke="#151515"/>
<path fill-rule="evenodd" clip-rule="evenodd" d="M2.07584 19.1909C2.97945 19.1909 3.71199 19.8935 3.71199 20.7603C3.71199 21.627 2.97945 22.3296 2.07584 22.3296C1.17223 22.3296 0.439697 21.627 0.439697 20.7603C0.439697 19.8935 1.17223 19.1909 2.07584 19.1909Z" fill="#151515" stroke="#151515"/>
<path fill-rule="evenodd" clip-rule="evenodd" d="M2.07584 6.7001C2.97945 6.7001 3.71199 7.40269 3.71199 8.26949C3.71199 9.13619 2.97945 9.83887 2.07584 9.83887C1.17223 9.83887 0.439697 9.13619 0.439697 8.26949C0.439697 7.40269 1.17223 6.7001 2.07584 6.7001Z" fill="#151515" stroke="#151515"/>
<path fill-rule="evenodd" clip-rule="evenodd" d="M24.631 19.1909C25.5347 19.1909 26.2672 19.8935 26.2672 20.7603C26.2672 21.627 25.5347 22.3296 24.631 22.3296C23.7274 22.3296 22.9949 21.627 22.9949 20.7603C22.9949 19.8935 23.7274 19.1909 24.631 19.1909Z" fill="#151515" stroke="#151515"/>
<path fill-rule="evenodd" clip-rule="evenodd" d="M24.631 6.7001C25.5347 6.7001 26.2672 7.40269 26.2672 8.26949C26.2672 9.13619 25.5347 9.83887 24.631 9.83887C23.7274 9.83887 22.9949 9.13619 22.9949 8.26949C22.9949 7.40269 23.7274 6.7001 24.631 6.7001Z" fill="#151515" stroke="#151515"/>
<path d="M40.8236 6.43115H37.4432V22.4091H40.8236V6.43115ZM49.2726 22.4091C54.1438 22.4091 57.0949 19.3976 57.0949 14.4045C57.0949 9.42698 54.1438 6.43115 49.3192 6.43115H43.6048V22.4091H49.2726ZM46.9849 19.5146V9.32557H49.1398C52.1375 9.32557 53.7225 10.8547 53.7225 14.4045C53.7225 17.9699 52.1375 19.5146 49.1319 19.5146H46.9849ZM61.453 22.4091L62.6397 18.7657H68.4087L69.5954 22.4091H73.2179L67.7061 6.43115H63.3502L57.8305 22.4091H61.453ZM63.4984 16.1287L65.4659 10.0823H65.5908L67.5579 16.1287H63.4984ZM75.1424 22.4091H85.3767V19.6239H78.5226V6.43115H75.1424V22.4091ZM87.6156 22.4091H90.9958V17.2287H93.8375C97.5145 17.2287 99.6535 15.0365 99.6535 11.8455C99.6535 8.67021 97.5536 6.43115 93.9232 6.43115H87.6156V22.4091ZM90.9958 14.5215V9.19296H93.2756C95.2273 9.19296 96.1717 10.254 96.1717 11.8455C96.1717 13.4293 95.2273 14.5215 93.291 14.5215H90.9958ZM117.389 13.6212C116.914 10.9998 114.816 9.45198 112.243 9.45198C108.97 9.45198 106.597 11.9735 106.597 16.0179C106.597 20.0623 108.97 22.5838 112.243 22.5838C114.816 22.5838 116.914 21.036 117.389 18.4146H115.84C115.465 20.1872 113.942 21.1359 112.243 21.1359C109.92 21.1359 108.096 19.3383 108.096 16.0179C108.096 12.6975 109.92 10.9 112.243 10.9C113.942 10.9 115.465 11.8487 115.84 13.6212H117.389ZM122.515 22.6338C124.189 22.6338 125.063 21.735 125.363 21.1109H125.438V22.4091H126.912V16.0928C126.912 13.047 124.589 12.6975 123.365 12.6975C121.915 12.6975 120.267 13.1968 119.517 14.9444L120.916 15.4437C121.241 14.7447 122.009 13.9957 123.414 13.9957C124.77 13.9957 125.438 14.7135 125.438 15.943V15.9929C125.438 16.7044 124.713 16.642 122.965 16.8668C121.185 17.0977 119.243 17.4909 119.243 19.6878C119.243 21.5603 120.691 22.6338 122.515 22.6338ZM122.74 21.3106C121.566 21.3106 120.716 20.7863 120.716 19.7628C120.716 18.6393 121.74 18.2898 122.89 18.14C123.514 18.0651 125.188 17.8903 125.438 17.5907V18.9389C125.438 20.1372 124.488 21.3106 122.74 21.3106ZM129.602 26.0041H131.076V20.9361H131.201C131.525 21.4604 132.15 22.6088 133.999 22.6088C136.397 22.6088 138.071 20.6865 138.071 17.6407C138.071 14.6198 136.397 12.6975 133.974 12.6975C132.1 12.6975 131.525 13.8459 131.201 14.3452H131.026V12.8223H129.602V26.0041ZM131.051 17.6157C131.051 15.4686 132 14.0207 133.799 14.0207C135.672 14.0207 136.597 15.5935 136.597 17.6157C136.597 19.6629 135.647 21.2857 133.799 21.2857C132.025 21.2857 131.051 19.7877 131.051 17.6157ZM140.319 22.4091H141.793V12.8223H140.319V22.4091ZM141.069 11.2245C141.643 11.2245 142.118 10.7751 142.118 10.2259C142.118 9.67665 141.643 9.22728 141.069 9.22728C140.494 9.22728 140.02 9.67665 140.02 10.2259C140.02 10.7751 140.494 11.2245 141.069 11.2245ZM148.664 12.8223H146.616V10.5255H145.142V12.8223H143.693V14.0706H145.142V20.0623C145.142 21.735 146.491 22.5339 147.74 22.5339C148.29 22.5339 148.639 22.4341 148.839 22.3592L148.54 21.036C148.415 21.0609 148.215 21.1109 147.89 21.1109C147.241 21.1109 146.616 20.9112 146.616 19.6629V14.0706H148.664V12.8223ZM153.705 22.6338C155.378 22.6338 156.253 21.735 156.553 21.1109H156.627V22.4091H158.101V16.0928C158.101 13.047 155.778 12.6975 154.554 12.6975C153.105 12.6975 151.456 13.1968 150.707 14.9444L152.106 15.4437C152.431 14.7447 153.199 13.9957 154.604 13.9957C155.959 13.9957 156.627 14.7135 156.627 15.943V15.9929C156.627 16.7044 155.903 16.642 154.154 16.8668C152.374 17.0977 150.432 17.4909 150.432 19.6878C150.432 21.5603 151.881 22.6338 153.705 22.6338ZM153.93 21.3106C152.755 21.3106 151.906 20.7863 151.906 19.7628C151.906 18.6393 152.93 18.2898 154.08 18.14C154.704 18.0651 156.378 17.8903 156.627 17.5907V18.9389C156.627 20.1372 155.678 21.3106 153.93 21.3106ZM162.265 9.62673H160.792V22.4091H162.265V9.62673Z" fill="#151515"/>
</g>
<defs>
<clipPath id="clip0">
<rect width="164" height="29" fill="white"/>
</clipPath>
</defs>
</svg>
